<svg width="24" height="24" viewBox="0 0 24 24" fill="none" xmlns="http://www.w3.org/2000/svg">
<path d="M7.08984 2.75C6.02898 2.75 5.01156 3.17143 4.26142 3.92157C3.51127 4.67172 3.08984 5.68913 3.08984 6.75V12.958C3.08984 14.0189 3.51127 15.0363 4.26142 15.7864C5.01156 16.5366 6.02898 16.958 7.08984 16.958H7.18284V20.75C7.18275 20.8472 7.211 20.9423 7.26413 21.0238C7.31727 21.1052 7.39298 21.1693 7.48201 21.2084C7.57103 21.2474 7.66951 21.2597 7.76539 21.2436C7.86127 21.2276 7.95039 21.1839 8.02184 21.118L12.5418 16.958H16.9108C17.9717 16.958 18.9891 16.5366 19.7393 15.7864C20.4894 15.0363 20.9108 14.0189 20.9108 12.958V6.75C20.9108 5.68913 20.4894 4.67172 19.7393 3.92157C18.9891 3.17143 17.9717 2.75 16.9108 2.75H7.08984Z" stroke="white" stroke-width="1.5" stroke-linecap="round" stroke-linejoin="round"/>
</svg>
