<svg width="28" height="28" viewBox="0 0 28 28" fill="none" xmlns="http://www.w3.org/2000/svg">
<path d="M9.81 25H0V17.98C0 15.14 0.24 12.9 0.73 11.27C1.24 9.62001 2.17 8.14001 3.52 6.83001C4.87 5.53001 6.59 4.50001 8.69 3.76001L10.61 7.81001C8.65 8.46001 7.25 9.37001 6.38 10.53C5.54 11.69 5.1 13.24 5.05 15.18H9.8V24.99L9.81 25ZM25.8 25.01H15.99V17.99C15.99 15.13 16.23 12.88 16.72 11.25C17.23 9.62001 18.16 8.15001 19.51 6.85001C20.88 5.55001 22.61 4.52001 24.68 3.78001L26.6 7.83001C24.64 8.48001 23.24 9.39001 22.37 10.55C21.53 11.71 21.09 13.26 21.04 15.2H25.79V25.01H25.8Z" fill="white"/>
</svg>
